/* XPM */
static char * caution_stripes_seamless_xpm[] = {
/* columns rows colors chars-per-pixel */
"64 64 91 1",
" 	c #AD7E00",
".	c #FDB900",
"+	c #FFBB00",
"@	c #A77A00",
"#	c #060400",
"$	c #000000",
"%	c #0A0500",
"&	c #AB7C00",
"*	c #FDBA00",
"=	c #FCB900",
"-	c #A37700",
";	c #040200",
">	c #070400",
",	c #A67900",
"'	c #A97B00",
")	c #080400",
"!	c #080500",
"~	c #A87A00",
"{	c #060300",
"]	c #090500",
"^	c #AA7C00",
"/	c #030200",
"(	c #A17500",
"_	c #A87B00",
":	c #050300",
"<	c #A47700",
"[	c #A17600",
"}	c #A97C00",
"|	c #AA7B00",
"1	c #050200",
"2	c #A27600",
"3	c #FBB800",
"4	c #A07500",
"5	c #0B0600",
"6	c #A57800",
"7	c #0A0600",
"8	c #AC7E00",
"9	c #0C0700",
"0	c #FCB800",
"a	c #AB7D00",
"b	c #A47800",
"c	c #040300",
"d	c #A07400",
"e	c #0C0600",
"f	c #FEBA00",
"g	c #B28200",
"h	c #0F0800",
"i	c #9F7400",
"j	c #AE7F00",
"k	c #0D0700",
"l	c #A77900",
"m	c #AE7E00",
"n	c #0E0800",
"o	c #0F0900",
"p	c #B38200",
"q	c #AC7D00",
"r	c #AD7F00",
"s	c #9C7200",
"t	c #B38300",
"u	c #100900",
"v	c #020100",
"w	c #9C7100",
"x	c #9F7300",
"y	c #B18200",
"z	c #A37600",
"A	c #9B7100",
"B	c #B18100",
"C	c #9E7300",
"D	c #0D0800",
"E	c #A57900",
"F	c #AF7F00",
"G	c #9A7000",
"H	c #0E0700",
"I	c #B48300",
"J	c #FAB800",
"K	c #AF8000",
"L	c #9B7000",
"M	c #FEBB00",
"N	c #9D7300",
"O	c #BA8800",
"P	c #130B00",
"Q	c #BA8700",
"R	c #130C00",
"S	c #100A00",
"T	c #140C00",
"U	c #A27500",
"V	c #BB8800",
"W	c #B48400",
"X	c #110A00",
"Y	c #010100",
"Z	c #997000",
/* pixels */
" .+++++.@#$$$$$%&*+++++=-;$$$$$>,=+++++*'#$$$$$)'.+++++.'!$$$$$;",
"*+++++.~{$$$$$]^.+++++=-/$$$$${,=+++++.']$$$$$>'.+++++=^!$$$$$/(",
"+++++.@#$$$$$%^.+++++=-{$$$$$),=+++++.^]$$$$$)_.+++++=^]$$$$$:(=",
"++++.@)$$$$$%&.+++++=<{$$$$$>,=+++++.^]$$$$$)_*+++++.^!$$$$$:[=+",
"+++.~)$$$$$]^.+++++=<{$$$$$>,=+++++.}!$$$$$>_.+++++.|%$$$$$123++",
"++.~#$$$$$]^.+++++=-:$$$$$:,=+++++.}]$$$$$>'=+++++=^]$$$$$/(3+++",
"+.~)$$$$$%^.+++++=<{$$$$$),=+++++.^]$$$$$!~.+++++=^%$$$$$:(=++++",
".~>$$$$$%^.+++++=<:$$$$$>,=+++++.^]$$$$$!~*+++++.^]$$$$$;(=+++++",
"@)$$$$$]^.+++++=<{$$$$$>,=+++++.^]$$$$${_.+++++.^]$$$$$;[3+++++*",
":$$$$$]^.+++++=<{$$$$$:,=+++++*^]$$$$$>_=+++++.^%$$$$$;(3+++++. ",
"$$$$$]^.+++++=<:$$$$$>,=+++++.^]$$$$$!~.+++++=^%$$$$$:4=+++++. 5",
"$$$$%^.+++++=<:$$$$$>6=+++++.^]$$$$$)@*+++++=&]$$$$$/(=+++++* 7$",
"$$$%^.+++++=<{$$$$${6=+++++.^]$$$$${~.+++++.^]$$$$$;(3+++++*85$$",
"$$]^.+++++=<{$$$$${6=+++++*^]$$$$$)_=+++++.^5$$$$$:(3+++++. 9$$$",
"$]^.+++++=<;$$$$$#6=+++++.^]$$$$$)~.+++++=&]$$$$$;40+++++. 7$$$$",
"%^.+++++=<{$$$$$>6=+++++.^%$$$$$>@.+++++=a%$$$$$;4=+++++* %$$$$$",
"^.+++++=b{$$$$${6=+++++.&%$$$$$>~.+++++.^]$$$$$1(3+++++* 9$$$$$:",
"*+++++=b{$$$$$>6=+++++*^]$$$$$>~.+++++.^5$$$$$:(3+++++* 9$$$$${<",
"+++++=b;$$$$${6=+++++.^]$$$$$>~=+++++=&]$$$$$/43+++++. 5$$$$$cb=",
"++++=b#$$$$$>6=+++++.&%$$$$$>@.+++++=&7$$$$$cd0+++++* 5$$$$${b=+",
"+++=6{$$$$${6=+++++.a]$$$$$)@.+++++.&]$$$$$;4=+++++* 9$$$$${6=++",
"++=6{$$$$$>6=+++++*^]$$$$$#@.+++++.^7$$$$$;(3+++++* 5$$$$$:b=+++",
"+=b:$$$$$:6=+++++*^]$$$$$>~=+++++.&%$$$$$/43+++++. 5$$$$$:<=++++",
"=b{$$$$$>6=+++++.&%$$$$$)@.+++++=a7$$$$$:d3+++++* e$$$$$:<=+++++",
"6{$$$$$>6=+++++.a]$$$$$)@.+++++.a%$$$$$;d0+++++* 5$$$$${b=+++++f",
";$$$$${6=+++++*a%$$$$${@.+++++.&%$$$$$;43+++++* e$$$$$:b=+++++*g",
"$$$$$:6=+++++*&]$$$$$>@=+++++.&5$$$$$;43+++++. 9$$$$${<=+++++*gh",
"$$$$>6=+++++.a%$$$$$)@=+++++=a7$$$$$;i3+++++.je$$$$$;<=+++++fgk$",
"$$$>b=+++++.a%$$$$$>l.+++++.a7$$$$$/d0+++++*m5$$$$${b=+++++*gn$$",
"$$:b=+++++*a7$$$$${@.+++++*&]$$$$$;43+++++* 9$$$$$:<=+++++*go$$$",
"${b=+++++*&%$$$$$>@=+++++.&5$$$$$:d3+++++*jk$$$$${-=+++++*po$$$$",
"{b=+++++.a%$$$$$>l=+++++=a7$$$$$/i3+++++.j5$$$$$;-=+++++fg9$$$$$",
"<=+++++.a7$$$$$>,.+++++.q7$$$$$;i3+++++*j5$$$$${<=+++++*go$$$$$/",
"=+++++*a%$$$$$>,.+++++.a]$$$$$;d3+++++*rk$$$$${<=+++++*po$$$$$/s",
"+++++*a%$$$$$>@=+++++.ae$$$$$;d3+++++*j9$$$$$:<=+++++*th$$$$$/s3",
"++++*a%$$$$$#l=+++++.q%$$$$$/i3+++++.j5$$$$$c-=+++++fg9$$$$$/s3+",
"+++.a7$$$$$>,.+++++.q5$$$$$;i3+++++*je$$$$$:-=+++++*gu$$$$$;s3++",
"++.q%$$$$$>,.+++++.q%$$$$$;i3+++++*j9$$$$${<=+++++*tn$$$$$/s3+++",
"+*a7$$$$${,.+++++.a5$$$$$;d3+++++*j9$$$$$:-=+++++*th$$$$$/s3++++",
"*a7$$$$$#,=+++++.q7$$$$$/i3+++++*j9$$$$$:-=+++++fpn$$$$$vw3+++++",
"a5$$$$$>,=+++++=q5$$$$$:x3+++++*j9$$$$$:-=+++++fph$$$$$;w3+++++*",
">$$$$$>,.+++++.q7$$$$$/i3+++++*je$$$$$:<=+++++*tn$$$$$;w3+++++*g",
"$$$$$:,.+++++*q7$$$$$;i3+++++*j9$$$$$:-=+++++*to$$$$$/w3+++++*yn",
"$$$$>,=+++++.qe$$$$$;i3+++++*jk$$$$$:z=+++++*tu$$$$$/A3+++++fBn$",
"$$$>,=+++++.85$$$$$;C3+++++*j9$$$$$;z=+++++ftk$$$$$/w3+++++*yD$$",
"$$>E.+++++.85$$$$$/C3+++++*j5$$$$$:-=+++++fto$$$$$;A3+++++*gh$$$",
"${,.+++++*q%$$$$$;i3+++++*jk$$$$$:-=+++++ftu$$$$$/A3+++++*gh$$$$",
">,=+++++.q9$$$$$;i3+++++*jk$$$$$:z=+++++*tu$$$$$/A3+++++fBn$$$$$",
",=+++++.87$$$$$/C3+++++*Fe$$$$$;2=+++++ftk$$$$$/A3+++++*yn$$$$$v",
".+++++. 5$$$$$;C3+++++*je$$$$$:z=+++++ftu$$$$$;A3+++++*go$$$$$;G",
"+++++*q7$$$$$;C3+++++*jH$$$$$:z=+++++fIu$$$$$/A3+++++*gh$$$$$/A3",
"++++.qe$$$$$;C3+++++*Fk$$$$$c2=+++++*Iu$$$$$/A3+++++fgn$$$$$/A3+",
"+++.85$$$$$vC3+++++*F9$$$$$c2=+++++ftn$$$$$vA3+++++*yh$$$$$/AJ++",
"++. 5$$$$$;C3+++++*Fk$$$$$:2=+++++ftu$$$$$;A3+++++*gh$$$$$;G3+++",
"+. 5$$$$$;C3+++++*Fk$$$$$:z=+++++fIo$$$$$/A3+++++*gh$$$$$;G3++++",
".q5$$$$$/C3+++++*Kk$$$$$c2=+++++fIu$$$$$/A3+++++fgn$$$$$vL3+++++",
"q5$$$$$/C3+++++*Kk$$$$$:2=+++++fIo$$$$$vA3+++++fgo$$$$$/AJ+++++M",
"]$$$$$;N3+++++*Kk$$$$$;2=+++++fIo$$$$$/A3+++++*gn$$$$$;GJ+++++fO",
"$$$$$/C3+++++*K9$$$$$:2=+++++fIo$$$$$/A3+++++*gh$$$$$;G3+++++fOP",
"$$$$/C3+++++*Kk$$$$$:2=+++++fIu$$$$$/A3+++++*go$$$$$vG3++++++QR$",
"$$$;C3+++++*Kn$$$$$:2=+++++*IS$$$$$/L3+++++fgo$$$$$/GJ+++++fOT$$",
"$$/N3+++++*K9$$$$$;U=+++++fIn$$$$$/A3+++++*gn$$$$$/GJ+++++fOR$$$",
"$/N3+++++*K9$$$$$:2=+++++fIu$$$$$;G3+++++*gu$$$$$/G3+++++fVT$$$$",
"vN3+++++fKn$$$$$;U=+++++fWX$$$$$vG3+++++fto$$$$$YZ3++++++OP$$$$$"};
