/* XPM */
static char * lava_xpm[] = {
/* columns rows colors chars-per-pixel */
"64 64 285 2",
"  	c #FF6000",
". 	c #FF6400",
"+ 	c #FF7800",
"@ 	c #FF8200",
"# 	c #FF8B00",
"$ 	c #FF9900",
"% 	c #FF7000",
"& 	c #FF5D00",
"* 	c #FF5600",
"= 	c #FF6100",
"- 	c #FF4F00",
"; 	c #FF4500",
"> 	c #FF4100",
", 	c #FF4600",
"' 	c #FF3B00",
") 	c #FF2500",
"! 	c #FF2C00",
"~ 	c #FF5900",
"{ 	c #FF6E00",
"] 	c #FF6A00",
"^ 	c #FF6700",
"/ 	c #FF7101",
"( 	c #FF8000",
"_ 	c #FF7900",
": 	c #FF8C00",
"< 	c #FFA000",
"[ 	c #FFA100",
"} 	c #FF8D00",
"| 	c #FF4A00",
"1 	c #FF5000",
"2 	c #FF5200",
"3 	c #FF4C00",
"4 	c #FF3900",
"5 	c #FF4000",
"6 	c #FF5300",
"7 	c #FF6500",
"8 	c #FF6B00",
"9 	c #FF6200",
"0 	c #FF6300",
"a 	c #FF6D00",
"b 	c #FF6600",
"c 	c #FF4B00",
"d 	c #FF5500",
"e 	c #FF7304",
"f 	c #FF8902",
"g 	c #FF9200",
"h 	c #FF7700",
"i 	c #FF9500",
"j 	c #FFA200",
"k 	c #FF9600",
"l 	c #FF6F00",
"m 	c #FF6900",
"n 	c #FF7400",
"o 	c #FF8900",
"p 	c #FF4300",
"q 	c #FF4200",
"r 	c #FF3700",
"s 	c #FF3100",
"t 	c #FF4900",
"u 	c #FF5A00",
"v 	c #FFA800",
"w 	c #FF7200",
"x 	c #FF3A00",
"y 	c #FF2800",
"z 	c #FF2400",
"A 	c #FF2F00",
"B 	c #FF3E00",
"C 	c #FF7500",
"D 	c #FF5400",
"E 	c #FF8300",
"F 	c #FF6C00",
"G 	c #FF7A00",
"H 	c #FF9C00",
"I 	c #FFC300",
"J 	c #FFAA00",
"K 	c #FF9C01",
"L 	c #FF7902",
"M 	c #FF7300",
"N 	c #FF9A00",
"O 	c #FF9D00",
"P 	c #FF4700",
"Q 	c #FF5100",
"R 	c #FF4D00",
"S 	c #FF4E00",
"T 	c #FF5C00",
"U 	c #FF9B00",
"V 	c #FF8700",
"W 	c #FF8600",
"X 	c #FF7D00",
"Y 	c #FF5800",
"Z 	c #FF3F00",
"` 	c #FF2700",
" .	c #FF2900",
"..	c #FF4400",
"+.	c #FF4800",
"@.	c #FF2600",
"#.	c #FF3C00",
"$.	c #FFAD00",
"%.	c #FFB100",
"&.	c #FFA207",
"*.	c #FF6E17",
"=.	c #FF6001",
"-.	c #FF7C00",
";.	c #FF5E00",
">.	c #FF9100",
",.	c #FF7B00",
"'.	c #FF9700",
").	c #FF9800",
"!.	c #FF2D00",
"~.	c #FF8F00",
"{.	c #FF2000",
"].	c #FF2300",
"^.	c #FF7804",
"/.	c #FF4A05",
"(.	c #FF5B00",
"_.	c #FF5F00",
":.	c #FF7E00",
"<.	c #FF2A00",
"[.	c #FF5700",
"}.	c #FFA400",
"|.	c #FF8500",
"1.	c #FF8E00",
"2.	c #FF3500",
"3.	c #FF7100",
"4.	c #FFAB00",
"5.	c #FF2100",
"6.	c #FF2E00",
"7.	c #FF8400",
"8.	c #FF3600",
"9.	c #FF2200",
"0.	c #FF9400",
"a.	c #FFA700",
"b.	c #FF3200",
"c.	c #FF8800",
"d.	c #FF5A04",
"e.	c #FF3800",
"f.	c #FFA900",
"g.	c #FFAF00",
"h.	c #FF2B00",
"i.	c #FFA300",
"j.	c #FFC100",
"k.	c #FF7600",
"l.	c #FF7F00",
"m.	c #FF9300",
"n.	c #FF7B03",
"o.	c #FF3E02",
"p.	c #FFB200",
"q.	c #FFA500",
"r.	c #FF3D00",
"s.	c #FF8A00",
"t.	c #FFBC00",
"u.	c #FF6800",
"v.	c #FF8100",
"w.	c #FF3300",
"x.	c #FFB901",
"y.	c #FFB701",
"z.	c #FF9E02",
"A.	c #FF8101",
"B.	c #FF9000",
"C.	c #FF7102",
"D.	c #FF9101",
"E.	c #FF9F00",
"F.	c #FFAC00",
"G.	c #FF7B01",
"H.	c #FF3400",
"I.	c #FF6B01",
"J.	c #FF9102",
"K.	c #FFAE00",
"L.	c #FF3000",
"M.	c #FFBB00",
"N.	c #FFC900",
"O.	c #FFCA00",
"P.	c #FFD200",
"Q.	c #FFC500",
"R.	c #FFB700",
"S.	c #FF9003",
"T.	c #FFA206",
"U.	c #FFA902",
"V.	c #FFA406",
"W.	c #FF9D0F",
"X.	c #FFA023",
"Y.	c #FF9303",
"Z.	c #FFB800",
"`.	c #FFC801",
" +	c #FFB104",
".+	c #FF7501",
"++	c #FF6F07",
"@+	c #FF5101",
"#+	c #FF4401",
"$+	c #FF4701",
"%+	c #FF6501",
"&+	c #FF9306",
"*+	c #FF9902",
"=+	c #FF6504",
"-+	c #FF7301",
";+	c #FF7503",
">+	c #FFA613",
",+	c #FF8304",
"'+	c #FF5201",
")+	c #FF6D02",
"!+	c #FF9004",
"~+	c #FF8D10",
"{+	c #FFAF1B",
"]+	c #FF9F01",
"^+	c #FFB400",
"/+	c #FFC200",
"(+	c #FF9E00",
"_+	c #FF4D01",
":+	c #FF7F03",
"<+	c #FFA703",
"[+	c #FF5F01",
"}+	c #FFA804",
"|+	c #FF9F03",
"1+	c #FFAD02",
"2+	c #FFBE00",
"3+	c #FFA805",
"4+	c #FF7F14",
"5+	c #FF3B01",
"6+	c #FFB000",
"7+	c #FFA601",
"8+	c #FF8401",
"9+	c #FF9A01",
"0+	c #FFAE28",
"a+	c #FF9412",
"b+	c #FFB202",
"c+	c #FF8D0F",
"d+	c #FF960C",
"e+	c #FF9105",
"f+	c #FFBC0A",
"g+	c #FF8109",
"h+	c #FF4D03",
"i+	c #FF5E02",
"j+	c #FF6801",
"k+	c #FF4705",
"l+	c #FF3B04",
"m+	c #FFC800",
"n+	c #FFBC07",
"o+	c #FF8C05",
"p+	c #FF9001",
"q+	c #FFA130",
"r+	c #FF8336",
"s+	c #FF4601",
"t+	c #FF5801",
"u+	c #FF9F04",
"v+	c #FF8E07",
"w+	c #FF920B",
"x+	c #FF8519",
"y+	c #FF4001",
"z+	c #FF2B01",
"A+	c #FF5C02",
"B+	c #FFA600",
"C+	c #FF8303",
"D+	c #FF7B02",
"E+	c #FF2D02",
"F+	c #FF761B",
"G+	c #FF9201",
"H+	c #FF6506",
"I+	c #FF2801",
"J+	c #FFA301",
"K+	c #FF3901",
"L+	c #FF9B02",
"M+	c #FF9209",
"N+	c #FF3F01",
"O+	c #FFB600",
"P+	c #FF8301",
"Q+	c #FF4201",
"R+	c #FF8601",
"S+	c #FFB500",
"T+	c #FF5103",
"U+	c #FF8001",
"V+	c #FFC400",
"W+	c #FF7601",
"X+	c #FF6701",
"Y+	c #FFAB01",
"Z+	c #FFA201",
"`+	c #FF8C02",
" @	c #FF7401",
".@	c #FF9803",
"+@	c #FF8C01",
"@@	c #FF7202",
"#@	c #FF6E01",
"$@	c #FF4E01",
"%@	c #FFBF00",
"&@	c #FFC000",
"*@	c #FF7201",
/* pixels */
"  . + @ # $ % & * = - ; ; > , ' ) ! ~ { ] ^ / ( _ : < < [ } | > | 1 2 & 3 4 5 | 6 7 8 { 9 0 a b 6 c d e f g h   = ] i j < k l = ",
"m b n o [ $ b     ~ , p p p q r s t h m     7 ] u ] $ < j v w ~ * ; x s y z A B p & C   ; D 8 & p 5 , 1 u ( E F ] G H I J K L ] ",
"9 c - M N O m   ~ P > q , Q R S T g U a 9 0 a u q | V < j j W X w Y Z `  ...+.5 q ~ w Z @.#.%   ....1 x ! +.6 4 p l g $.%.&.*.=.",
"3 , c 8 -.: n = Q q p S * ;.m b > Q C C h >.$ ,.Z A 6 '.< ).E -.l m = t D W V - | & ^ ..!.5 h ~.C a 7 !.{.]. .].y u @ E ~.^./.; ",
"+.(.m = - Q d u d ..> | ;._.:.^  .<.p [.X J }.k | z x |.>.1.|.G b (.d _.+ 1.H 3 2.P 9 3.[.; S @ 4.: 6 !.5.@.2.y 6.  |.@ 7.l c > ",
"d _ ,.Y q > > * m 3 > ; 6 3 D = 3 Z > t % '.$ '.m #.S b d   7.i X [.p , { O H 8.9.6.  '.w #.<.#.0.a.u b.9.s 0 6 d ,.c.7.W E 7 c ",
":.M 7 [...5 5   ( 9 1 ~ d.e.' 3 7._ Y & _ ( 0 ;.^ & 7 Y p 1 X f.g.] q > 0 v g.[.h.e.M i.,.B z h.,.j.O ~ 8., k.] ;.Y (.k.l.7.|.-.",
"m.w 0 _.R q +.n 7.C _ n.o.) h.| m +.; 3.@ % t ; ~ Y 6 6 1 0 W O $.8 > > 7 < p.q.b 0 c.[ h d r.t s.t.p.H M 3.0.~.^ P 3 m [.6 X q.",
"~.@ w n n u.+ v.{ d Q S 6.9.w.v.7 y A ^ v.C * 2 0 - p - b k.,.M + a , > 6 # x.y.|.v.~.z.A.h _ :.E H q.'.w u.,.4.~.^ a + +.q   >.",
"2 n ( w a 3.;.S | ; > > #.4 = < g 6 2 3.:.( _ + G T Q _ _ u * & * [.3 > > t C A.b k.B.k.C.s.: n a 7.< 0.] = 3.D.V 0.E.~.c p c - ",
"..0 k.q A > | q , 3 ; q 3 F -.@ F.g.G.b 8 C { l _ ,.,.q.{ ; P - 2.h.5 , 5 5 p H.h.t w . u | +.* = m E ).@ C -.l I.J.y.@ ; 5 5 5 ",
"c 0 l B @.8.R 6 d ;.~ 1 Q ] ] 0 C a.l       S c = v.|.o F - D * b.` c   P , ..!.].w.T = * H.!.d ^ = . X [ E.g a { N K.n | > 5 > ",
"u . _ l > r.+.w n 0 9 , L.Z T   . # M = 9 _.S t u._ 8 F (.D + G u D k.8 T ^ b > b.B 9 ] C ~ 6 N $ m = % < g 7.,.k.( @ 3.. d +.c ",
"u.{ V :.- , d ~.J + S 6.9.L.* = b m m . u.,.V C :.~ R Q ; ..a D.@ 7.E u.0 u.u.- ; 1 b (.Y S 3 l.M.B.C 7.( Q R a & 1 ~ 0 m 8 ;._.",
"+ G n p !.S f.N.O.C q 2.s , _.F M . =   b g }.% (., p 3 | t F B.B.V l 0 _.p L.q u . _.; > 5 > [.+ k.7.i.k.q > u * p - ;.0 l ^ 9 ",
"6 7 u 2.y _.P.Q.$.M +., = k.+ : V 3.;.& 7 '.m.0 u 1 _.7 = 7 :.~.U X 0 . 9 x ` B (.[.* 3 | c R = ^ 9 ,.g.q.R +.a C 9 T     = P e.",
"B & _.Q 6 + R.F.[ i M % l.v.( h w = | R _.( H n 8 S.T.U >.s.X a m m 8 w 9 c | Y S ..- G W g 1.V M m   l f.m._ G X : 8     T r z ",
"~ ^ 9 u.& Q o K.U.V.V X :.|.G b = 1 q P T l.q.$ c.W.X.Y.$ U + 9 T | 1 (.P ; S 2 | p Q 7.g E M E W k.R +.s.Z.# * t & 7 = a |._.Z ",
"R a b (.b.) > N `. +E a ] l.: { b = D Y 3.k o { ] .+++8 G |.,.u.6 !.` 2.> x r r...2 { v.,.[.P 1 | | R Y B.g a c ..d 0 9 l s.m ' ",
"r ;.  ~ 2.` L., { 1.:.^ 9 n < k G w u.% o B.-.b ^ 3.7 9 T R * b = r.6.x 5 h.z 6.q (.M :.l.& c ' @. .8.3 c.n S ; R u.F 7 0 7 5 z ",
"t 7   _.t 4 h.9.A a C b P ..+ j @ 7 & Y _.  u.-.W ~.M T w.].h.p 9 a [.* c  .9.b.[.0 . h k B.% R h.) ].L.3.u.P p Q = 0 7   1 x s ",
"= { b ;.3 > w.y w.= ;.t y z ; c.m 3 | ..w.!.q V 1.n m Q A z ].) > { 0 u S r s - ~.M b ,.E.q.7.(.L.9.` S # { D Q T   = 8 { Q p | ",
"[.  ~ * u D 1 3 @+1 ; w.9.z | (.+.q P 5 y 5.r |.C =   Y , e.6.@.Z n 7 3 p #+$+F i M b h O }._ & x @.<.* 1.k.u.7 9 0 ] G -.Y t 6 ",
"..4 ! w.* 9 . 3.%+p Z ! 5.2.l - p t 2 D 4 H.9 i n b F &+*+v.7.Y u + + * t =+-+h k.] = { k N ] * 1 8.z ' C ( 3.M k.h :.( { t p , ",
"5 b.) ` ' - = h h - t B B 2 (.S Y ^ 9   (.~ + W a 3.o V W c.W a 9 u.:.v.|.N l.^ 7 8 l X G h _.P P ..x 2 l.l 1 3 ~ l v.-.0 P ; , ",
"..#.e.#.> S { ~.i h ^ ;+>+,+c Q E >.+ .     _.Q |   h b   1 t D u.% G c.).H c.u.b E $.$ ^ 2 , p t ~ ;.u.E n | q p = : 8 c +.(.9 ",
"d P 1 6 '+)+!+n B ; % ~+{+]+F 3.i.O c.n . 9 d p q = @ m 9 Q , 0 m.@ T d { E '.: m.^+/+F.,.[.; R = 0 2 R 9 -.0 - 1 _ (+m ' > l v.",
"k.0 u t _+:+<+#.{.) Y [+(.:.U 0.k c.v.:.l u.1 > t k.U ~.}+]+@ # M ~ t ..[.% n 8 _ j g.$.0.b * ] & P q > - M C 9 9 >.%.M !.s ] W ",
":.X 3.2 1 l.m.H.{.` Q 3 p 0 1.W W o c.:.u._.1 t D F o k |+1+2+U 1 , * 2 ~ _.(.T u.B.i.< w | Q l.;.p q ..Q . ^ = = G 3+4+5+H.Y % ",
"_ @ M * _.B.<   8.5 3 1 ~ _ ~.E |.i '.M = 9 n + .   7 m u.-.6+~.d [.W n _...b.Z a k 7+8+* , - l.X d , ..- 9 m 9 = w 9+0+a+u.  b ",
"l.X Y ..- 7.b+0.d r y Z n l.,.:.: O $ { 9 ] 7.s.{ 2 P | (.a |.R 4 u |._ ;.4 ].` [.i < { ;.[.. E $ X - ..6 m l u.= a >.c+d+# a w ",
">.7.d ..c _ < V | !.9.H.8 b = u._ : }.c.n { t > | ; q t ~ ~ |  .].e.u 0   c !.9.x w m R Y = -.k 6+0.~ +.T 7 0 ^ b M _ 0 m ,.l.: ",
"[ i b R S = o v.P 4 s B c w.#.& b w < [ '.h w.y #.P D _.Q , Z A ! ' 1   =   t r R _.w.! t a V m.f.( > h.8.(.b C + = c S 7 X E m.",
"q.(+0 ; .., & k.R > > t 2.9.<.D = a '.< '.b 8.e.u 3.C c b.4 p p > +.~   . - p t -.{ e.w.. # X ,.# k.' ].!.7 X V |.u q +.] ~.>.(+",
"@ C ..r., ; * h 9 6 1 ~ , s @+# ( o [ i.C s ) L.D E a s ` q ~ _.[.6 &   1 > 5 q w @ 8 ^ E :.D d h l.^ R Q 3.F a v.n d (.( s.W W ",
"(.e.y ; ^ Y = n ^   _.R r #.e+%.U }.2+f+g+L.].6.R + + 2 h+i+2 R c +.= u.t > 5 > u l _ l.G . ; t = 0 G U E + u.j+M X ,.G :.m b ^ ",
"0 k+l+3.< { l W u.  & 4 5.].Q c.7.>.m+n+o+9 c Q 7 E o p+q+r+s+#.p c b 8 [.2 2 2 S t & k.m   [.& * , ~ m.o ( 7.E ] ^ D t ^ u.7 m ",
").Y.t+m %.u+v+8+T u u.d !.y S v.|.'.I U l _ V 7 7 V o c.w+x+y+z+#.  + 8 ~ _.,.+ 6 ; ~ k.a 8 E V = r.s | + |.o b Q 6 b.` A+:.k.v.",
"B+o 3 P l C+D+u ; R 3.7.m & _ o 1.v t.h | ~ w +.r.6 _.~ * | b.].L.Y F [.p P l :.^ ;.a ] C M 1 1 { t @.s m { d ; , Q H.E+F+G+E s.",
"O E D | c c u 6 ; c b M ^ u.@ # 7.g K._ t 6 = L.) 4 c q q > x H.e.| T 3 5 p ] l . ] Y b.B 3  .6.0   ' q 0 c > ..* 6 6.!.H+= [.E ",
"v.|.@ ,.R ..2 & d ~ u.% b ^ C v.v.E # F 1 &   2.z r D , 4 4 - 6 p q Q 1 p | F { 9 u r.) <.5 x p % F ;.;.~ ..> Q k.7 L.h.8.<.` - ",
"{ F w 7.  Q T 6 ' q ;.8 3.F 2 | u.-.D !.b.6 9 Q ! w.n w !.h.d u.Q R S Z #.d ^ v.n 6 B b.H.> ;.: g -.u.  Q q ..m v.{ - | <.5.I+| ",
"b.B 6 k.-.= 6 x z  .R _.7 0 H.) H.3 2.@.b.T l _.!.h.n ( H.w.h J+F & D h.!.D k.j # Y ; > 5 5 ;.< 6+c.= Q - | c u.9 L.L.r.].{.K+q ",
"].b.Q { u.~ P e.!.2.S 3 - (.H.z ` `  .H.3 + ( 8 c Q ( F R ;.L+M+N+w.* +...% >.O+W Q p +.> q   E.H + | q 3 D x w.s 5.5.s @.) c ' ",
"x D k.T ; P +., R ~ 2 p Z r s #.8.].) 5 & ,.o h k.B.i F ^ ,.g P+P Q+R+]+X v.~.S+s.* +.2 2 Q 7 W B.G S ..S * w.` A y A > y h.. 6 ",
"Q T l.& ..| * ~   0 7 ~ +.<.@.T+= 5 q u b B._ & X j [ c.:.l.n 8 0 U+y.M.>.s.N V+N C 3 B 6 ] _.] c.V n u T ~ ; ' r.; w m 6.L.  u.",
", , m W 3.{ _.. h s.E.g w > x [.F @ @ + X v.~ Z Q X G a % %   _.^ :.s.F ;.G >.K.i ( ; ) p [.t * F l _ u.& c ..+.| (.C 0 5 w., ~ ",
"- R n 0.: m t q 1 W+< g ] _._.  = 3.3._ -.M Y s <.c 9   ~ c t (.3.,.u q > ~ :.v.l.C x ` Z S p 6   7 _ n ;.+.q 3 T C 0 ; 8.z ` +.",
"^ b o W ,.[.> 6.z > o 8 ' Z 3 Q ;.0 = 7 u.. u w.@.5 D Q 6 ; c X+Y (.~ ; , 0 ,.8 u.& 6.) p u ~ X+0 = ] a R p 3   = X C 6 #.@. .[.",
"u.7 X 7.X m d p r.~ C B ].y ' p [.=   0 7 S w.6.' S t p - - . w s b.1 - 1 7 3.=   ] S > = G G 8 =   9 0 ' b.t ;.R   c.h 2 e.q 8 ",
",.& 0 h ( ,._.D ] O -., A b.Z P T   6 9 3.5 z <.- (.t ; 1 | P r.y y ' > w.w.+.S R % |.g Y+4.W 0     0 . A ].x d , D -.@ 0 c T g ",
"~.t +.0 :.k.- p (.Z+`+8 7 ;.* & . [., d ] p A ' u = ~ u & t 5 x ` 9.L.B ! z 2.q q - (. @.@O+U ] (.T b d ! @.t u.(.T m 3.u +.. 2+",
". P +.F |.-.T - 0 V |.l.l.l 7 m b Q q c l S p Q   0 ] ,.M 1 ; ..L. .' d P #.1 S ; q > R ^ v.E & t - (.> e.e.D . m 7 0 * p 5 +.F ",
"9 u.-.U k o @ w   & % ^ ^ k.k.V g a P Q c.] 2 T   ] @ o . p , b 9 2 T b . ;.m m > s x +.R 6 l ~ p #.! ` 2...* 6 P Y 7 D , ..3 & ",
"= ] V '.X + : u.p > c t ,   ,.W (+h Z ! p w .   = l ,.F 2 > q m $ '.g $ h 9 b u.2.z b.5 > ..9 + * x ) ) t   _.#.` ' b ] 8 ^ D 6 ",
"- , d C u.7 v.% ..q Q c P & d | p !.z 9.! a ]   . _ 3.9 T S 1 U+2+j.4.E.@ u.] k.2 r ' > , [.V : 3.3 4 q = a h 2 w.p G V ,.F c P ",
"Y | D w % m -.7.0 b : & [.C c Z  .{.5.h.P k _ ] % l.M { 3.C _ '.i.( m u.M G G ( l.M 9 C ).f.^+s.3._.T * e.H.Y .   M |.{ T & Q 1 ",
"# l d 1 +.c . G E +@@@; ..b _.3 w.].y S ^ V @ v.{ 0 +.[.:.h C E b t | (.{ V E :.E @ : g.g.F.Z.a.-.9   Q h.@...= 0 b #@$@, 2 1 u ",
"1.V t b.z y P & _ $ l p ; F ( ] P 4 , _.] b [.| r L.)  .Z 2.e.;.d q ..[.8 W l Y u.X |.H 0.c.N m+M.# w . , 5 d _.1 ; 3 t P ; A 4 ",
"U m.D e.@.y #...= < $ ,.W [ o ,.  u m h :.b c b.].@.h.h.A z  .d l [.d ;.= 0 3 q S 3.@ >.: 3.l [ v U # u.b b [.Q S ; S = % m 4 ; ",
"7 C 1 ..#.Z | R { 6+$.%@P.&@O $ m.-.( s.7._   , e.6 0 t , 4 B a 1.l.(.| S u S +.* k.V ~.F , 6 (.P ; m % l { | > 3 d & + 1.g u B ",
"! p ..q +.; S 0 l ( -.o [ ~.7._ ^ . % V V 7.( w l ~.).M l 0 ;.b ] d q 5 ..Y = u.k.E i G ' ) x c !.<.b s.( C 4 A , _.m E 7.:.> ].",
"L.> c 2 ~ - T ;.c c 2 * 0 7 8 D q c   n g o X ] 7 G i W v.% 1 3 (.d ..q | F { M _ *@l.+ Z <.B [.> , M @ v.u.A ) > 7 1.B.@ ,.R 6.",
"- 1 8 ,.v.E @ T ; +.P p t 3 u S A 8.~ w $ c.G m 0 + U 0.g ,...5 - m ~ Y = % ^ 9 u.7 m C ;.2 & = _.b _ ( @ h ; b.R b U $ B.B.3.u "};
